#!OML:ASF F:\VICON\USERDATA\INSTALL\rory3\rory3.ASF
:FULLY-SPECIFIED
:DEGREES
115
root 0.7882546431118465 17.671063475429722 39.46497854278636 1.6868381483733734 1.1187495787596482 0.35073888520312035
lfemur -13.799669434114527 0.788596086799634 -23.695233979071848
ltibia 40.19177630386033
lfoot 6.101331204445087 -10.546666422780689
ltoes -4.230904189076659
rfemur -23.866841846691614 3.510184932193432 25.633382193154468
rtibia 55.96573018673951
rfoot -2.1057154915170964 -5.719914830077619
rtoes -1.4090425381525302
lowerback 13.166972741401496 0.2240282903013111 -0.6571999040984728
upperback -0.7514286461440313 0.04670718158216225 0.8728596983067395
thorax -8.396995081896481 0.45950507529667023 1.4104139418005552
lowerneck -20.09749952661879 -3.6786966721193655 -1.8791717537692378
upperneck 10.468450952064314 -4.941838757579663 2.994670784759284
head 6.437460473938451 -2.266096987708824 0.8193169985869653
lclavicle 4.287488207731266e-15 5.75886165290891e-17
lhumerus -43.23196884452593 -13.279248653441623 96.30627446931959
lradius 109.68322566455554
lwrist 28.599200538895666
lhand -29.446642371342243 2.6121691736642405
lfingers 7.125019999999998
lthumb -3.1729381348155052 32.40216307436225
rclavicle 4.28752700038245e-15 5.761646213958064e-17
rhumerus -46.139506603613896 14.514394313394247 -100.40892083117862
rradius 105.61923185600847
rwrist -9.648046973457612
rhand -20.33484421616024 36.480993274568505
rfingers 7.125019999999998
rthumb 5.990915171440009 6.215802564118846
116
root 0.8548018602663017 17.804862944414165 42.339026357488315 2.059238136556335 1.396827030662073 0.6532495231325055
lfemur -13.59290133825663 0.7311860489510084 -23.603094796802218
ltibia 42.26585725375647
lfoot 4.548849458631281 -11.110512794348322
ltoes -4.153677175121295
rfemur -23.05074613422063 3.842099871652943 26.089834868305584
rtibia 55.394263831735095
rfoot -2.06747836686902 -5.6482336396464925
rtoes -1.2411754554738315
lowerback 13.054568809836951 0.10179351751014032 -0.7808731802550426
upperback -0.8236205057181366 -0.12212622003305995 0.9796073467917501
thorax -8.37951405254842 0.3951894156885109 1.5148905248736761
lowerneck -20.125633856395634 -3.6965574605504896 -1.9224217049518184
upperneck 10.487738894158754 -4.916298227102222 3.0180713027296715
head 6.4315283308220605 -2.2805054113467707 0.8106950603743964
lclavicle 4.287488207731266e-15 5.75886165290891e-17
lhumerus -43.13106013182325 -13.834081002470251 96.11586757206237
lradius 109.59834853460792
lwrist 28.604387591951127
lhand -29.59540468899644 2.657304711962965
lfingers 7.125019999999998
lthumb -3.138744559039464 32.41218746317681
rclavicle 4.28752700038245e-15 5.761646213958064e-17
rhumerus -46.96438199685362 14.310589356663659 -100.40823555253003
rradius 105.74800346591572
rwrist -9.488668823981701
rhand -20.349219447655656 36.47160926316259
rfingers 7.125019999999998
rthumb 6.114783049594865 6.36557927784389
117
root 0.8577213811643822 17.835465396802945 40.818909425790174 2.062474482483645 0.9058822384784899 0.39399595129804466
lfemur -11.231808564497438 1.419377441244577 -22.670316817283968
ltibia 44.866013033570454
lfoot 3.836915872963413 -10.761459385224349
ltoes -4.055494272249666
rfemur -22.896945420011455 3.7684512895885094 26.425153714786063
rtibia 54.84410822531491
rfoot -1.8155263159602621 -5.5735937339093855
rtoes -1.2501514890293006
lowerback 12.915706355671176 -0.027066584401735483 -0.8501223595486
upperback -0.841630253756541 -0.13312460039093632 1.1380100096512258
thorax -8.38727360501247 0.26820215005609627 1.5073417068575308
lowerneck -19.98284797489245 -3.5636803063975933 -1.8627394841514264
upperneck 10.35240951816703 -4.9700550604411715 2.9915142672801545
head 6.441660811595973 -2.2785976318636467 0.8145288678134436
lclavicle 4.287488207731266e-15 5.75886165290891e-17
lhumerus -42.18833499560916 -13.819054262929512 96.12680047414695
lradius 109.47165301184909
lwrist 28.717261393397564
lhand -29.585117958983012 2.813652983001818
lfingers 7.125019999999998
lthumb -3.158764696315848 32.455076320591544
rclavicle 4.28752700038245e-15 5.761646213958064e-17
rhumerus -47.68980985419011 14.111245678688036 -100.34471546573894
rradius 105.84858503755444
rwrist -9.468489370464717
rhand -20.358176822523887 36.4399097672966
rfingers 7.125019999999998
rthumb 6.1071081696158975 6.4273495411104555
118
root 0.9228243659211428 17.951597032885978 43.33644985500506 2.3640478289982276 1.1565919585996394 0.5683006111151925
lfemur -11.862384621828056 1.0899043188281679 -23.168102798112244
ltibia 47.635551226000494
lfoot 3.255408320876386 -9.587101192432895
ltoes -4.394331292218236
rfemur -24.318710919565525 3.679814036371037 25.73948319551843
rtibia 54.5130564963113
rfoot -1.853077279541429 -5.575260229093303
rtoes -0.3438863814706854
lowerback 12.725878694881407 -0.16312250179219 -0.9085904029729488
upperback -0.8583574209390845 -0.13296058253765097 1.2727814653981675
thorax -8.38205789107953 0.1747023279373292 1.5081025705364068
lowerneck -20.08129388410305 -3.621977889010427 -1.9275200136792578
upperneck 10.393310036055201 -4.933500183391505 3.027831550898197
head 6.435682439292248 -2.2901411040002233 0.8072727755999128
lclavicle 4.287488207731266e-15 5.75886165290891e-17
lhumerus -41.6647309051132 -13.858960739481219 96.1155573488478
lradius 109.71339380341759
lwrist 28.728132616546706
lhand -29.61963486403496 2.864562014342537
lfingers 7.125019999999998
lthumb -3.2237995338912797 32.436115749983806
rclavicle 4.28752700038245e-15 5.761646213958064e-17
rhumerus -48.5198442902529 13.860437060541257 -100.2880216102951
rradius 105.96313593150623
rwrist -9.517843076861809
rhand -20.351009988703264 36.47376504049351
rfingers 7.125019999999998
rthumb 6.100965762424889 6.454642642144435
